<svg xmlns="http://www.w3.org/2000/svg" viewBox="0 0 82.6 84.7">
  <defs/>
  <path d="M80.3 48.9l-6.8-3.5c.1-1 .2-2 .2-3 0-.9-.1-1.9-.1-2.9l6.8-3.5c1.6-.6 2.5-2.3 2-3.9l-1.8-5.4c-.6-1.6-2.3-2.5-3.9-2l-7.5 1.2c-1-1.7-2.2-3.4-3.5-4.9l3.5-6.8c1-1.4.7-3.4-.7-4.3l-4.7-3.4c-1.4-1-3.4-.7-4.3.7l-5.3 5.3c-1.8-.8-3.7-1.4-5.5-1.8l-1.1-7.6C47.4 1.3 46 0 44.3 0h-5.7c-1.7 0-3.1 1.4-3.1 3.1l-1.3 7.7c-2 .5-3.8 1-5.6 1.8l-5.4-5.5c-1-1.4-2.9-1.7-4.3-.7l-4.7 3.5c-1.4 1-1.7 2.9-.7 4.3L17 21c-1.3 1.5-2.5 3.1-3.5 4.8l-7.6-1.2c-1.6-.6-3.4.4-3.9 2L.2 32c-.6 1.6.4 3.4 2 3.9L9 39.4c-.1 1-.2 2.1-.2 3.1 0 .9.1 1.9.1 2.8l-6.8 3.5c-1.6.6-2.5 2.3-2 3.9l1.8 5.4c.6 1.6 2.3 2.5 3.9 2l7.5-1.2c1 1.7 2.2 3.3 3.5 4.8l-3.6 6.7c-1 1.4-.7 3.4.7 4.3l4.7 3.4c1.4 1 3.4.7 4.3-.7l5.3-5.3c1.8.8 3.8 1.4 5.7 1.9l1.1 7.6c0 1.7 1.4 3.1 3.1 3.1H44c1.7 0 3.1-1.4 3.1-3.1l1.2-7.6c2-.5 3.8-1 5.6-1.8l5.4 5.5c1 1.4 2.9 1.7 4.3.7l4.7-3.4c1.4-1 1.7-2.9.7-4.3l-3.5-6.8c1.3-1.5 2.4-3 3.5-4.7l7.6 1.2c1.6.6 3.4-.4 3.9-2l1.8-5.4c.4-1.9-.4-3.7-2-4.1zm-37.6 12c-.4.5-1.1.7-1.9.7s-1.5-.2-1.9-.7-.6-1.1-.6-1.8.2-1.3.6-1.8 1.1-.7 1.9-.7 1.5.2 1.9.7.7 1.1.7 1.8-.2 1.3-.7 1.8zM47 43.7l-2.6 2.5c-1.1 1.3-1.7 3.1-1.7 5.5h-4.3c0-1.9.2-3.3.6-4.4.4-1.1 1.2-2.3 2.4-3.6l3.1-3.2c1.3-1.5 2-3.1 2-4.8 0-1.6-.4-2.9-1.3-3.8s-2.1-1.4-3.7-1.4-2.9.4-3.8 1.3-1.5 2-1.5 3.4h-4.3c0-2.5.9-4.6 2.7-6.1s4.1-2.3 6.9-2.3c3 0 5.3.8 6.9 2.4a8.9 8.9 0 012.5 6.5c-.1 2.6-1.3 5.3-3.9 8z"/>
</svg>
