<svg xmlns="http://www.w3.org/2000/svg" viewBox="0 0 72.6 80.4">
  <defs/>
  <path d="M20.3 43.6c3.3 0 6.1-2.2 7.1-5.2.2-.7.4-1.5.4-2.3 0-1.4-.5-2.7-1.1-4-.5-1.2-1.1-2.3-2-3.2a7 7 0 00-1.7-1.3c-.6-.3-1.3-.6-2-.8-.7-.2-1.4-.3-2.1-.3h-.5c-4.3.3-7.7 3.8-7.7 8.2 0 1.1.2 2.1.6 3 .3.8.7 1.5 1.3 2.2.4.5.9.9 1.3 1.3 1.7 1.4 4.2 2.4 6.4 2.4zm-6.9-9.2c.1-1.3.6-2.4 1.4-3.3.1-.1.1-.2.2-.3.1-.1.2-.1.3-.2a5.94 5.94 0 013.6-1.4h.2c1.4.1 2.7.6 3.7 1.6.3.3.5.6.7.9a5.3 5.3 0 01.7 4.4c-.3.9-.7 1.8-1.4 2.5a5.52 5.52 0 01-6.9.7c-.3-.2-.6-.5-.9-.7-.4-.4-.7-.9-1-1.3-.4-.8-.7-1.6-.7-2.5 0-.2.1-.3.1-.4z"/>
  <path d="M15 37.4c.9 1.2 2.3 2 3.9 2h.4c2.2-.2 4-2 4.2-4.2v-.5c0-1.6-.8-3-2-3.9-.8-.5-1.7-.8-2.7-.8-.3 0-.6 0-.9.1-2.2.4-3.8 2.3-3.8 4.6 0 .4.1.8.2 1.2.1.6.4 1.1.7 1.5zm3.8-6c1.3 0 2.3.7 2.9 1.7.3.5.4 1 .4 1.6a3.37 3.37 0 01-5 3c-1-.6-1.7-1.7-1.7-2.9a3.5 3.5 0 013.4-3.4z"/>
  <path d="M18.8 37.3c1.4 0 2.6-1.1 2.6-2.6 0-.8-.4-1.5-.9-2-.4-.4-1-.6-1.6-.6-1.4 0-2.6 1.2-2.6 2.6 0 .6.2 1.2.6 1.6.4.6 1.1 1 1.9 1zM47.8 28.3c-.4-.3-.9-.6-1.3-.9-.1-.1-.3-.1-.4-.2-1-.5-2.1-.7-3.3-.7a8.29 8.29 0 00-8 6.3c-.1.5-.2 1-.2 1.6v.3a8.3 8.3 0 004 7.1c1.7 1 3.7 1.9 5.6 1.9 4.1 0 7.5-3.4 7.5-7.5 0-2.5-1.1-5-2.8-6.9-.4-.4-.7-.7-1.1-1zm.2 7.9c-.3.9-.7 1.8-1.4 2.5a5.52 5.52 0 01-6.9.7c-.3-.2-.6-.5-.9-.7-1-1-1.6-2.4-1.6-3.9v-.1c0-.6.1-1.1.3-1.6.2-.7.6-1.4 1.1-2l.1-.1.2-.2c.1-.1.2-.1.3-.2.9-.8 2.1-1.3 3.4-1.4h.2c.8 0 1.5.2 2.1.4.5.2.9.5 1.4.9.1.1.3.2.4.3.3.3.5.6.7.9.6.9.9 1.9.9 3l-.3 1.5z"/>
  <path d="M45.4 30.9c-.5-.3-1-.6-1.6-.7-.3-.1-.7-.1-1.1-.1-1.8 0-3.4 1-4.2 2.6-.3.5-.4 1.1-.5 1.7v.4c0 1 .3 1.9.8 2.7.9 1.2 2.3 2 3.9 2h.5c2.2-.2 4-2 4.2-4.2v-.4c0-1.7-.8-3.2-2-4zm-2.7 7.2c-.6 0-1.1-.2-1.6-.4-1-.6-1.7-1.7-1.7-2.9 0-.4.1-.8.2-1.2.5-1.3 1.7-2.2 3.1-2.2a3.35 3.35 0 012.9 1.7c.3.5.4 1 .4 1.6 0 1.9-1.4 3.4-3.3 3.4z"/>
  <path d="M42.7 32.2h-.1c-.7 0-1.3.3-1.8.8-.4.5-.7 1.1-.7 1.7 0 .6.2 1.2.6 1.6.5.6 1.2.9 2 .9 1.4 0 2.6-1.1 2.6-2.6 0-.8-.4-1.5-.9-2-.5-.2-1.1-.4-1.7-.4zM45.9 61.4v-5.1H16.5v5.1h29.4zm-26.3-4.1v2.3h1v-2.3h2.1v2.3h1v-2.3H26v2.3h1v-2.3h2.1v2.3h1v-2.3h2.1v2.3h1v-2.3h2.1v2.3h1v-2.3h2.1v2.3h1v-2.3h2.1v2.3h1v-2.3h2.1V60.4H17.5V57.3h2.1z"/>
  <path d="M71.8 39.3c-.3-.9-.6-1.7-1-2.4-.2-.3-.5-.6-.8-.9-.3-.3-.8-.5-1.3-.5h-2.2c-.6-2.3-1.7-4.4-3.2-6.1l-.5-.4-.3-.3-4.6-4.5c-2.7-3.2-6.7-5.3-11.2-5.3h-.8c-.1-.3-.3-.7-.5-1.1-.3-.6-.8-1.2-1.4-1.6-.6-.5-1.5-.8-2.5-.8h-3.9l-.4-.4c-.2-.3-.5-.9-.5-2V9.5c.3-.7.6-1.5.6-2.3 0-2.2-1.8-4-4-4s-4 1.8-4 4c0 .9.3 1.7.8 2.3v3.4c0 1.3-.4 1.8-.6 2.1-.1.1-.2.2-.3.2h-3.9c-1 0-1.9.3-2.5.8-1 .7-1.5 1.7-1.8 2.4 0 .1-.1.2-.1.3H20c-8 0-14.6 6.5-14.6 14.6v2.2H3.9c-.5 0-1 .2-1.3.5-.6.5-.9 1-1.2 1.7-.4 1-.8 2.3-1 3.7-.3 1.5-.4 3.2-.4 5 0 2.7.3 5.2.8 7.1.3.9.6 1.7 1 2.4.2.3.5.6.8.9.3.3.8.5 1.3.5h1.5v2.9c0 3.7 1.4 7.1 3.7 9.7l1.1 1.1 4.6 4.6 1.1 1.1.1.1c2.6 2.3 5.9 3.7 9.6 3.7h26.7c8 0 14.6-6.5 14.6-14.6v-8.6h1.7c.5 0 1-.2 1.3-.5.6-.5.9-1 1.2-1.7.4-1 .8-2.3 1-3.7.2-1.5.4-3.1.4-4.9.1-2.9-.2-5.3-.7-7.2zM5.4 54.5H4.1c-.1-.1-.3-.4-.4-.8-.6-1.4-1-4.2-1-7.3 0-2.5.3-4.8.7-6.3.2-.8.5-1.4.7-1.7l.1-.1h1.3v16.2zm28.5-43.4v1.8c0 .9.1 1.7.4 2.3h-1.9c.2-.6.4-1.4.4-2.3v-1.8c.2 0 .4.1.6.1s.3-.1.5-.1zm-1.8-6.2c.6 0 1.1.5 1.1 1.1 0 .6-.5 1.1-1.1 1.1-.6 0-1.1-.5-1.1-1.1 0-.6.5-1.1 1.1-1.1zm-7.7 13.3c.2-.2.5-.3.9-.3h16.1c.4 0 .6.1.9.3.2.1.4.3.5.6h-19l.6-.6zm6.5 21.5l.4.4c0 .1.1.2.1.2s.1.1.1.2c.6 1 1.3 2.3 2 3.5.3.6.6 1.1.9 1.6.2.3.2.5.2.7v.1c0 .1 0 .1-.1.2 0 0-.1.1-.3.1h-.3H27.5h-.1c-.2 0-.3 0-.5-.1-.1 0-.2-.1-.3-.1-.1-.1-.1-.1-.1-.3 0-.1 0-.4.2-.7.7-1.2 1.7-3 2.6-4.5v-.1c0-.1.1-.1.1-.2.2-.3.3-.5.4-.8.1-.1.1-.2.2-.2v-.1l.2-.2.2-.1.5.4zm-.8 32.2H20c-1.8 0-3.5-.4-5-1.1-.7-.3-1.3-.7-1.9-1.1-.3-.2-.6-.5-.9-.8l-.8-.8-.3-.3a12 12 0 01-3-7.8V33.4c0-3.3 1.3-6.2 3.5-8.4 2.2-2.1 5.1-3.5 8.4-3.5h10.2v16c-.3.1-.7.2-1 .4l-.3.3c-.3.3-.5.5-.7.9 0 .1-.1.1-.1.2-.9 1.5-2.2 3.8-3 5.3-.3.6-.5 1.2-.5 1.8 0 .5.1.9.2 1.4.3 1.1.4 2.1 1.3 2.9.7.6 1.6.8 2.5.8H30.3V53H13.2v12.1H30.1v6.8zm10.8-16.4h5.5v6.6H15.9v-6.6h25zm17.6-4.2V60c0 3.3-1.3 6.2-3.5 8.4-2.2 2.1-5.1 3.5-8.4 3.5H31.2v-7h18V52.7H31.3v-1.5h4.2c.7 0 1.3-.1 1.9-.4.2-.1.4-.2.5-.3.2-.2.4-.3.5-.5.3-.4.5-.9.6-1.4v-.4c0-.7-.2-1.4-.6-2-.9-1.5-2.3-4-3.2-5.5-.3-.5-2-2.5-2.5-2.8-.4-.3-.9-.4-1.3-.5h-.1V36v-1.5-7.3-1.3-.5-.8-3.1h15.5a11.45 11.45 0 018.1 3.3l.2.2.3.3c.2.2.4.4.5.6 0 0 0 .1.1.1.1.2.3.3.4.5a11.78 11.78 0 012.2 6.9v17.9zm7.1 3.2H64.2c-.1-.1-.3-.4-.4-.8-.6-1.4-1-4.2-1-7.3 0-2.5.3-4.8.7-6.3.2-.8.5-1.4.7-1.7l.1-.1H65.9c-.1.3-.2.5-.3.8-.2.7-.4 1.5-.5 2.4-.2 1.5-.4 3.1-.4 4.9 0 2.7.3 5.2.8 7.1 0 .1.1.2.1.2.1.3.2.6.3.8h-.3zm3.6-1.8c-.2.6-.4 1.1-.5 1.4-.1-.1-.1-.3-.2-.5-.6-1.4-1-4.2-1-7.3 0-2.5.3-4.8.7-6.3.2-.6.3-1.1.5-1.4.1.1.1.3.2.5.6 1.4 1 4.2 1 7.3 0 2.5-.3 4.8-.7 6.3z"/>
  <path d="M45.7 6.1l-4.4.1L44.1 0l-5.6 7.2h4.2l-4.2 6.5zM42 14.5l10.3-1.8-3.6-2.5 6-3.4-8.8 2.4 3.4 2.6zM28.3 13.7l-4.2-6.5h4.2L22.7 0l2.8 6.2-4.5-.1zM14.4 12.7l10.4 1.8-7.3-2.7 3.4-2.6-8.8-2.4 5.9 3.4zM28.3 24.8c.2 0 .4-.1.5-.2.1-.1.2-.3.2-.5 0-.4-.3-.8-.8-.8-.4 0-.8.3-.8.8 0 .2.1.4.2.5.3.1.5.2.7.2zM32.9 24.8c.2 0 .4-.1.5-.2.1-.1.2-.3.2-.5 0-.4-.3-.8-.8-.8s-.8.3-.8.8c0 .2.1.4.2.5.3.1.5.2.7.2z"/>
  <circle cx="28.3" cy="31.9" r=".8"/>
  <circle cx="32.9" cy="31.9" r=".8"/>
  <path d="M28.3 69.2c.4 0 .8-.3.8-.8 0-.4-.3-.8-.8-.8s-.8.3-.8.8c.1.4.4.8.8.8zM32.9 67.7c-.4 0-.8.3-.8.8 0 .4.3.8.8.8.4 0 .8-.3.8-.8s-.4-.8-.8-.8z"/>
</svg>
